<svg id="Layer_1" data-name="Layer 1" xmlns="http://www.w3.org/2000/svg" viewBox="0 0 32 32"><defs><style>.cls-1{fill:#b65f1b;}.cls-1,.cls-2,.cls-3,.cls-4,.cls-5,.cls-6,.cls-7,.cls-8{opacity:0.6;}.cls-2{fill:#d9953a;}.cls-3{fill:#c77a25;}.cls-4{fill:#51391f;}.cls-5{fill:#566661;}.cls-6{fill:#78d9c4;}.cls-7{fill:#614b2c;}.cls-8{fill:#6c8680;}</style></defs><rect class="cls-1" x="21" y="5" width="1" height="1"/><rect class="cls-2" x="19" y="6" width="1" height="1"/><rect class="cls-2" x="20" y="6" width="1" height="1"/><rect class="cls-1" x="21" y="6" width="1" height="1"/><rect class="cls-2" x="18" y="7" width="1" height="1"/><rect class="cls-3" x="19" y="7" width="1" height="1"/><rect class="cls-3" x="20" y="7" width="1" height="1"/><rect class="cls-1" x="21" y="7" width="1" height="1"/><rect class="cls-1" x="22" y="7" width="1" height="1"/><rect class="cls-2" x="16" y="8" width="1" height="1"/><rect class="cls-2" x="17" y="8" width="1" height="1"/><rect class="cls-3" x="18" y="8" width="1" height="1"/><rect class="cls-3" x="19" y="8" width="1" height="1"/><rect class="cls-3" x="20" y="8" width="1" height="1"/><rect class="cls-3" x="21" y="8" width="1" height="1"/><rect class="cls-1" x="22" y="8" width="1" height="1"/><rect class="cls-2" x="15" y="9" width="1" height="1"/><rect class="cls-3" x="16" y="9" width="1" height="1"/><rect class="cls-3" x="17" y="9" width="1" height="1"/><rect class="cls-3" x="18" y="9" width="1" height="1"/><rect class="cls-3" x="19" y="9" width="1" height="1"/><rect class="cls-3" x="20" y="9" width="1" height="1"/><rect class="cls-3" x="21" y="9" width="1" height="1"/><rect class="cls-1" x="22" y="9" width="1" height="1"/><rect class="cls-1" x="23" y="9" width="1" height="1"/><rect class="cls-2" x="13" y="10" width="1" height="1"/><rect class="cls-2" x="14" y="10" width="1" height="1"/><rect class="cls-3" x="15" y="10" width="1" height="1"/><rect class="cls-3" x="16" y="10" width="1" height="1"/><rect class="cls-3" x="17" y="10" width="1" height="1"/><rect class="cls-3" x="18" y="10" width="1" height="1"/><rect class="cls-3" x="19" y="10" width="1" height="1"/><rect class="cls-3" x="20" y="10" width="1" height="1"/><rect class="cls-3" x="21" y="10" width="1" height="1"/><rect class="cls-3" x="22" y="10" width="1" height="1"/><rect class="cls-1" x="23" y="10" width="1" height="1"/><rect class="cls-2" x="12" y="11" width="1" height="1"/><rect class="cls-3" x="13" y="11" width="1" height="1"/><rect class="cls-3" x="14" y="11" width="1" height="1"/><rect class="cls-3" x="15" y="11" width="1" height="1"/><rect class="cls-3" x="16" y="11" width="1" height="1"/><rect class="cls-3" x="17" y="11" width="1" height="1"/><rect class="cls-3" x="18" y="11" width="1" height="1"/><rect class="cls-3" x="19" y="11" width="1" height="1"/><rect class="cls-3" x="20" y="11" width="1" height="1"/><rect class="cls-3" x="21" y="11" width="1" height="1"/><rect class="cls-3" x="22" y="11" width="1" height="1"/><rect class="cls-1" x="23" y="11" width="1" height="1"/><rect class="cls-1" x="24" y="11" width="1" height="1"/><rect class="cls-2" x="11" y="12" width="1" height="1"/><rect class="cls-3" x="12" y="12" width="1" height="1"/><rect class="cls-1" x="13" y="12" width="1" height="1"/><rect class="cls-3" x="14" y="12" width="1" height="1"/><rect class="cls-3" x="15" y="12" width="1" height="1"/><rect class="cls-3" x="16" y="12" width="1" height="1"/><rect class="cls-3" x="17" y="12" width="1" height="1"/><rect class="cls-3" x="18" y="12" width="1" height="1"/><rect class="cls-3" x="19" y="12" width="1" height="1"/><rect class="cls-3" x="20" y="12" width="1" height="1"/><rect class="cls-3" x="21" y="12" width="1" height="1"/><rect class="cls-3" x="22" y="12" width="1" height="1"/><rect class="cls-3" x="23" y="12" width="1" height="1"/><rect class="cls-1" x="24" y="12" width="1" height="1"/><rect class="cls-1" x="25" y="12" width="1" height="1"/><rect class="cls-2" x="10" y="13" width="1" height="1"/><rect class="cls-3" x="11" y="13" width="1" height="1"/><rect class="cls-3" x="12" y="13" width="1" height="1"/><rect class="cls-1" x="13" y="13" width="1" height="1"/><rect class="cls-3" x="14" y="13" width="1" height="1"/><rect class="cls-3" x="15" y="13" width="1" height="1"/><rect class="cls-3" x="16" y="13" width="1" height="1"/><rect class="cls-3" x="17" y="13" width="1" height="1"/><rect class="cls-3" x="18" y="13" width="1" height="1"/><rect class="cls-3" x="19" y="13" width="1" height="1"/><rect class="cls-3" x="20" y="13" width="1" height="1"/><rect class="cls-3" x="21" y="13" width="1" height="1"/><rect class="cls-3" x="22" y="13" width="1" height="1"/><rect class="cls-3" x="23" y="13" width="1" height="1"/><rect class="cls-1" x="24" y="13" width="1" height="1"/><rect class="cls-1" x="25" y="13" width="1" height="1"/><rect class="cls-2" x="10" y="14" width="1" height="1"/><rect class="cls-3" x="11" y="14" width="1" height="1"/><rect class="cls-3" x="12" y="14" width="1" height="1"/><rect class="cls-3" x="13" y="14" width="1" height="1"/><rect class="cls-1" x="14" y="14" width="1" height="1"/><rect class="cls-3" x="15" y="14" width="1" height="1"/><rect class="cls-3" x="16" y="14" width="1" height="1"/><rect class="cls-3" x="17" y="14" width="1" height="1"/><rect class="cls-3" x="18" y="14" width="1" height="1"/><rect class="cls-3" x="19" y="14" width="1" height="1"/><rect class="cls-3" x="20" y="14" width="1" height="1"/><rect class="cls-3" x="21" y="14" width="1" height="1"/><rect class="cls-3" x="22" y="14" width="1" height="1"/><rect class="cls-3" x="23" y="14" width="1" height="1"/><rect class="cls-1" x="24" y="14" width="1" height="1"/><rect class="cls-4" x="25" y="14" width="1" height="1"/><rect class="cls-2" x="9" y="15" width="1" height="1"/><rect class="cls-3" x="10" y="15" width="1" height="1"/><rect class="cls-3" x="11" y="15" width="1" height="1"/><rect class="cls-3" x="12" y="15" width="1" height="1"/><rect class="cls-3" x="13" y="15" width="1" height="1"/><rect class="cls-1" x="14" y="15" width="1" height="1"/><rect class="cls-3" x="15" y="15" width="1" height="1"/><rect class="cls-3" x="16" y="15" width="1" height="1"/><rect class="cls-3" x="17" y="15" width="1" height="1"/><rect class="cls-3" x="18" y="15" width="1" height="1"/><rect class="cls-3" x="19" y="15" width="1" height="1"/><rect class="cls-3" x="20" y="15" width="1" height="1"/><rect class="cls-3" x="21" y="15" width="1" height="1"/><rect class="cls-1" x="22" y="15" width="1" height="1"/><rect class="cls-1" x="23" y="15" width="1" height="1"/><rect class="cls-1" x="24" y="15" width="1" height="1"/><rect class="cls-4" x="25" y="15" width="1" height="1"/><rect class="cls-2" x="8" y="16" width="1" height="1"/><rect class="cls-3" x="9" y="16" width="1" height="1"/><rect class="cls-3" x="10" y="16" width="1" height="1"/><rect class="cls-3" x="11" y="16" width="1" height="1"/><rect class="cls-3" x="12" y="16" width="1" height="1"/><rect class="cls-3" x="13" y="16" width="1" height="1"/><rect class="cls-3" x="14" y="16" width="1" height="1"/><rect class="cls-1" x="15" y="16" width="1" height="1"/><rect class="cls-3" x="16" y="16" width="1" height="1"/><rect class="cls-3" x="17" y="16" width="1" height="1"/><rect class="cls-3" x="18" y="16" width="1" height="1"/><rect class="cls-3" x="19" y="16" width="1" height="1"/><rect class="cls-1" x="20" y="16" width="1" height="1"/><rect class="cls-1" x="21" y="16" width="1" height="1"/><rect class="cls-1" x="22" y="16" width="1" height="1"/><rect class="cls-5" x="23" y="16" width="1" height="1"/><rect class="cls-5" x="24" y="16" width="1" height="1"/><rect class="cls-4" x="25" y="16" width="1" height="1"/><rect class="cls-2" x="8" y="17" width="1" height="1"/><rect class="cls-2" x="9" y="17" width="1" height="1"/><rect class="cls-2" x="10" y="17" width="1" height="1"/><rect class="cls-3" x="11" y="17" width="1" height="1"/><rect class="cls-3" x="12" y="17" width="1" height="1"/><rect class="cls-3" x="13" y="17" width="1" height="1"/><rect class="cls-3" x="14" y="17" width="1" height="1"/><rect class="cls-1" x="15" y="17" width="1" height="1"/><rect class="cls-3" x="16" y="17" width="1" height="1"/><rect class="cls-3" x="17" y="17" width="1" height="1"/><rect class="cls-1" x="18" y="17" width="1" height="1"/><rect class="cls-1" x="19" y="17" width="1" height="1"/><rect class="cls-1" x="20" y="17" width="1" height="1"/><rect class="cls-5" x="21" y="17" width="1" height="1"/><rect class="cls-5" x="22" y="17" width="1" height="1"/><rect class="cls-5" x="23" y="17" width="1" height="1"/><rect class="cls-5" x="24" y="17" width="1" height="1"/><rect class="cls-4" x="25" y="17" width="1" height="1"/><rect class="cls-2" x="7" y="18" width="1" height="1"/><rect class="cls-4" x="8" y="18" width="1" height="1"/><rect class="cls-5" x="9" y="18" width="1" height="1"/><rect class="cls-2" x="10" y="18" width="1" height="1"/><rect class="cls-2" x="11" y="18" width="1" height="1"/><rect class="cls-2" x="12" y="18" width="1" height="1"/><rect class="cls-2" x="13" y="18" width="1" height="1"/><rect class="cls-3" x="14" y="18" width="1" height="1"/><rect class="cls-3" x="15" y="18" width="1" height="1"/><rect class="cls-1" x="16" y="18" width="1" height="1"/><rect class="cls-1" x="17" y="18" width="1" height="1"/><rect class="cls-1" x="18" y="18" width="1" height="1"/><rect class="cls-5" x="19" y="18" width="1" height="1"/><rect class="cls-5" x="20" y="18" width="1" height="1"/><rect class="cls-5" x="21" y="18" width="1" height="1"/><rect class="cls-4" x="22" y="18" width="1" height="1"/><rect class="cls-4" x="23" y="18" width="1" height="1"/><rect class="cls-5" x="24" y="18" width="1" height="1"/><rect class="cls-4" x="25" y="18" width="1" height="1"/><rect class="cls-4" x="8" y="19" width="1" height="1"/><rect class="cls-5" x="9" y="19" width="1" height="1"/><rect class="cls-5" x="10" y="19" width="1" height="1"/><rect class="cls-5" x="11" y="19" width="1" height="1"/><rect class="cls-5" x="12" y="19" width="1" height="1"/><rect class="cls-2" x="13" y="19" width="1" height="1"/><rect class="cls-2" x="14" y="19" width="1" height="1"/><rect class="cls-2" x="15" y="19" width="1" height="1"/><rect class="cls-1" x="16" y="19" width="1" height="1"/><rect class="cls-5" x="17" y="19" width="1" height="1"/><rect class="cls-5" x="18" y="19" width="1" height="1"/><rect class="cls-5" x="19" y="19" width="1" height="1"/><rect class="cls-4" x="20" y="19" width="1" height="1"/><rect class="cls-4" x="21" y="19" width="1" height="1"/><rect class="cls-6" x="22" y="19" width="1" height="1"/><rect class="cls-6" x="23" y="19" width="1" height="1"/><rect class="cls-5" x="24" y="19" width="1" height="1"/><rect class="cls-7" x="25" y="19" width="1" height="1"/><rect class="cls-4" x="8" y="20" width="1" height="1"/><rect class="cls-5" x="9" y="20" width="1" height="1"/><rect class="cls-5" x="10" y="20" width="1" height="1"/><rect class="cls-5" x="11" y="20" width="1" height="1"/><rect class="cls-5" x="12" y="20" width="1" height="1"/><rect class="cls-5" x="13" y="20" width="1" height="1"/><rect class="cls-5" x="14" y="20" width="1" height="1"/><rect class="cls-5" x="15" y="20" width="1" height="1"/><rect class="cls-4" x="16" y="20" width="1" height="1"/><rect class="cls-5" x="17" y="20" width="1" height="1"/><rect class="cls-5" x="18" y="20" width="1" height="1"/><rect class="cls-5" x="19" y="20" width="1" height="1"/><rect class="cls-6" x="20" y="20" width="1" height="1"/><rect class="cls-6" x="21" y="20" width="1" height="1"/><rect class="cls-6" x="22" y="20" width="1" height="1"/><rect class="cls-6" x="23" y="20" width="1" height="1"/><rect class="cls-5" x="24" y="20" width="1" height="1"/><rect class="cls-7" x="25" y="20" width="1" height="1"/><rect class="cls-4" x="8" y="21" width="1" height="1"/><rect class="cls-5" x="9" y="21" width="1" height="1"/><rect class="cls-4" x="10" y="21" width="1" height="1"/><rect class="cls-5" x="11" y="21" width="1" height="1"/><rect class="cls-5" x="12" y="21" width="1" height="1"/><rect class="cls-5" x="13" y="21" width="1" height="1"/><rect class="cls-5" x="14" y="21" width="1" height="1"/><rect class="cls-5" x="15" y="21" width="1" height="1"/><rect class="cls-4" x="16" y="21" width="1" height="1"/><rect class="cls-5" x="17" y="21" width="1" height="1"/><rect class="cls-5" x="18" y="21" width="1" height="1"/><rect class="cls-5" x="19" y="21" width="1" height="1"/><rect class="cls-6" x="20" y="21" width="1" height="1"/><rect class="cls-6" x="21" y="21" width="1" height="1"/><rect class="cls-4" x="22" y="21" width="1" height="1"/><rect class="cls-4" x="23" y="21" width="1" height="1"/><rect class="cls-8" x="24" y="21" width="1" height="1"/><rect class="cls-7" x="25" y="21" width="1" height="1"/><rect class="cls-7" x="8" y="22" width="1" height="1"/><rect class="cls-8" x="9" y="22" width="1" height="1"/><rect class="cls-7" x="10" y="22" width="1" height="1"/><rect class="cls-4" x="11" y="22" width="1" height="1"/><rect class="cls-5" x="12" y="22" width="1" height="1"/><rect class="cls-4" x="13" y="22" width="1" height="1"/><rect class="cls-4" x="14" y="22" width="1" height="1"/><rect class="cls-5" x="15" y="22" width="1" height="1"/><rect class="cls-4" x="16" y="22" width="1" height="1"/><rect class="cls-5" x="17" y="22" width="1" height="1"/><rect class="cls-5" x="18" y="22" width="1" height="1"/><rect class="cls-5" x="19" y="22" width="1" height="1"/><rect class="cls-4" x="20" y="22" width="1" height="1"/><rect class="cls-4" x="21" y="22" width="1" height="1"/><rect class="cls-8" x="22" y="22" width="1" height="1"/><rect class="cls-8" x="23" y="22" width="1" height="1"/><rect class="cls-8" x="24" y="22" width="1" height="1"/><rect class="cls-7" x="25" y="22" width="1" height="1"/><rect class="cls-7" x="8" y="23" width="1" height="1"/><rect class="cls-8" x="9" y="23" width="1" height="1"/><rect class="cls-7" x="10" y="23" width="1" height="1"/><rect class="cls-7" x="11" y="23" width="1" height="1"/><rect class="cls-8" x="12" y="23" width="1" height="1"/><rect class="cls-6" x="13" y="23" width="1" height="1"/><rect class="cls-6" x="14" y="23" width="1" height="1"/><rect class="cls-5" x="15" y="23" width="1" height="1"/><rect class="cls-4" x="16" y="23" width="1" height="1"/><rect class="cls-5" x="17" y="23" width="1" height="1"/><rect class="cls-5" x="18" y="23" width="1" height="1"/><rect class="cls-8" x="19" y="23" width="1" height="1"/><rect class="cls-8" x="20" y="23" width="1" height="1"/><rect class="cls-8" x="21" y="23" width="1" height="1"/><rect class="cls-8" x="22" y="23" width="1" height="1"/><rect class="cls-8" x="23" y="23" width="1" height="1"/><rect class="cls-8" x="24" y="23" width="1" height="1"/><rect class="cls-7" x="8" y="24" width="1" height="1"/><rect class="cls-8" x="9" y="24" width="1" height="1"/><rect class="cls-7" x="10" y="24" width="1" height="1"/><rect class="cls-7" x="11" y="24" width="1" height="1"/><rect class="cls-8" x="12" y="24" width="1" height="1"/><rect class="cls-7" x="13" y="24" width="1" height="1"/><rect class="cls-7" x="14" y="24" width="1" height="1"/><rect class="cls-8" x="15" y="24" width="1" height="1"/><rect class="cls-7" x="16" y="24" width="1" height="1"/><rect class="cls-8" x="17" y="24" width="1" height="1"/><rect class="cls-8" x="18" y="24" width="1" height="1"/><rect class="cls-8" x="19" y="24" width="1" height="1"/><rect class="cls-8" x="20" y="24" width="1" height="1"/><rect class="cls-8" x="21" y="24" width="1" height="1"/><rect class="cls-8" x="22" y="24" width="1" height="1"/><rect class="cls-7" x="11" y="25" width="1" height="1"/><rect class="cls-8" x="12" y="25" width="1" height="1"/><rect class="cls-8" x="13" y="25" width="1" height="1"/><rect class="cls-8" x="14" y="25" width="1" height="1"/><rect class="cls-8" x="15" y="25" width="1" height="1"/><rect class="cls-7" x="16" y="25" width="1" height="1"/><rect class="cls-8" x="17" y="25" width="1" height="1"/><rect class="cls-8" x="18" y="25" width="1" height="1"/><rect class="cls-8" x="19" y="25" width="1" height="1"/><rect class="cls-8" x="20" y="25" width="1" height="1"/><rect class="cls-8" x="14" y="26" width="1" height="1"/><rect class="cls-8" x="15" y="26" width="1" height="1"/><rect class="cls-7" x="16" y="26" width="1" height="1"/><rect class="cls-8" x="17" y="26" width="1" height="1"/><rect class="cls-8" x="18" y="26" width="1" height="1"/></svg>